<svg width="16" height="16" viewBox="0 0 16 16" fill="currentColor" xmlns="http://www.w3.org/2000/svg">
  <path d="M2.66675 7.81738C2.66675 7.56425 2.85485 7.35506 3.0989 7.32195L3.16675 7.31738L13.1667 7.31738C13.4429 7.31738 13.6667 7.54124 13.6667 7.81738C13.6667 8.07051 13.4786 8.27971 13.2346 8.31282L13.1667 8.31738H3.16675C2.89061 8.31738 2.66675 8.09353 2.66675 7.81738Z"/>
  <path d="M8.78075 4.15563C8.58507 3.96079 8.58439 3.64421 8.77923 3.44853C8.95636 3.27063 9.2341 3.2539 9.43015 3.39871L9.48634 3.447L13.5197 7.463C13.6981 7.64066 13.7143 7.9194 13.5684 8.11545L13.5197 8.1716L9.48637 12.1883C9.2907 12.3831 8.97412 12.3825 8.77926 12.1868C8.60212 12.0089 8.58655 11.7311 8.7322 11.5357L8.78072 11.4797L12.4581 7.81712L8.78075 4.15563Z"/>
</svg>
